<?xml version="1.0" encoding="UTF-8" standalone="no"?>
<svg
   xmlns:dc="http://purl.org/dc/elements/1.1/"
   xmlns:cc="http://creativecommons.org/ns#"
   xmlns:rdf="http://www.w3.org/1999/02/22-rdf-syntax-ns#"
   xmlns:svg="http://www.w3.org/2000/svg"
   xmlns="http://www.w3.org/2000/svg"
   viewBox="0 0 799.96002 247.10667"
   height="247.10667"
   width="799.96002"
   xml:space="preserve"
   id="svg2"
   version="1.1"><metadata
     id="metadata8"><rdf:RDF><cc:Work
         rdf:about=""><dc:format>image/svg+xml</dc:format><dc:type
           rdf:resource="http://purl.org/dc/dcmitype/StillImage" /></cc:Work></rdf:RDF></metadata><defs
     id="defs6" /><g
     transform="matrix(1.3333333,0,0,-1.3333333,0,247.10667)"
     id="g10"><g
       transform="scale(0.1)"
       id="g12"><path
         id="path14"
         style="fill:#51c5c8;fill-opacity:1;fill-rule:nonzero;stroke:none"
         d="m 4130.44,27 c -86.98,0 -157.5,70.5195 -157.5,157.5 v 1025.99 c 0,86.99 70.52,157.5 157.5,157.5 86.99,0 157.5,-70.51 157.5,-157.5 V 184.5 C 4287.94,97.5195 4217.43,27 4130.44,27" /><path
         id="path16"
         style="fill:#51c5c8;fill-opacity:1;fill-rule:nonzero;stroke:none"
         d="m 3960.45,1683.33 c 0,93.88 76.12,170 170,170 93.89,0 170,-76.12 170,-170 0,-93.89 -76.11,-170 -170,-170 -93.88,0 -170,76.11 -170,170" /><path
         id="path18"
         style="fill:#51c5c8;fill-opacity:1;fill-rule:nonzero;stroke:none"
         d="m 3499.03,26.9883 c -86.98,0 -157.5,70.5234 -157.5,157.4997 v 540.723 c 0,86.988 70.52,157.496 157.5,157.496 86.98,0 157.5,-70.508 157.5,-157.496 V 184.488 c 0,-86.9763 -70.52,-157.4997 -157.5,-157.4997" /><path
         id="path20"
         style="fill:#51c5c8;fill-opacity:1;fill-rule:nonzero;stroke:none"
         d="m 3329.04,1197.98 c 0,93.89 76.11,170 170,170 93.88,0 170,-76.11 170,-170 0,-93.89 -76.12,-170 -170,-170 -93.89,0 -170,76.11 -170,170" /><path
         id="path22"
         style="fill:#51c5c8;fill-opacity:1;fill-rule:nonzero;stroke:none"
         d="m 735.117,26.9297 c -56.887,0 -109.351,30.6797 -137.25,80.2503 L 20.2773,1133.37 c -42.664,75.8 -15.80464,171.84 60,214.5 75.7967,42.67 171.8357,15.81 214.5037,-60 L 735.063,505.629 1174.84,1287.6 c 42.65,75.81 138.68,102.71 214.49,60.08 75.82,-42.65 102.71,-138.67 60.07,-214.49 L 872.398,107.23 C 844.508,57.6406 792.043,26.9414 735.141,26.9297 h -0.024" /><path
         id="path24"
         style="fill:#51c5c8;fill-opacity:1;fill-rule:nonzero;stroke:none"
         d="m 5302.15,315 c -210.9,0 -382.5,171.59 -382.5,382.488 0,210.918 171.6,382.502 382.5,382.502 210.91,0 382.5,-171.584 382.5,-382.502 C 5684.65,486.59 5513.06,315 5302.15,315 Z m 0,1079.99 c -384.6,0 -697.5,-312.89 -697.5,-697.502 0,-384.59 312.9,-697.488 697.5,-697.488 384.6,0 697.5,312.898 697.5,697.488 0,384.612 -312.9,697.502 -697.5,697.502" /><path
         id="path26"
         style="fill:#51c5c8;fill-opacity:1;fill-rule:nonzero;stroke:none"
         d="m 2340.88,315 c -210.9,0 -382.5,171.59 -382.5,382.488 0,210.918 171.6,382.502 382.5,382.502 210.91,0 382.5,-171.584 382.5,-382.502 C 2723.38,486.59 2551.79,315 2340.88,315 Z m 0,1079.99 c -384.6,0 -697.5,-312.89 -697.5,-697.502 0,-384.59 312.9,-697.488 697.5,-697.488 384.6,0 697.5,312.898 697.5,697.488 0,384.612 -312.9,697.502 -697.5,697.502" /></g></g></svg>