<?xml version="1.0" encoding="UTF-8" standalone="no"?>
<svg
   xmlns:dc="http://purl.org/dc/elements/1.1/"
   xmlns:cc="http://creativecommons.org/ns#"
   xmlns:rdf="http://www.w3.org/1999/02/22-rdf-syntax-ns#"
   xmlns:svg="http://www.w3.org/2000/svg"
   xmlns="http://www.w3.org/2000/svg"
   viewBox="0 0 352 352"
   height="352"
   width="352"
   xml:space="preserve"
   id="svg2"
   version="1.1"><metadata
     id="metadata8"><rdf:RDF><cc:Work
         rdf:about=""><dc:format>image/svg+xml</dc:format><dc:type
           rdf:resource="http://purl.org/dc/dcmitype/StillImage" /></cc:Work></rdf:RDF></metadata><defs
     id="defs6" /><g
     transform="matrix(1.3333333,0,0,-1.3333333,0,352)"
     id="g10"><g
       transform="scale(0.1)"
       id="g12"><path
         id="path14"
         style="fill:#00c8d2;fill-opacity:1;fill-rule:nonzero;stroke:none"
         d="m 1320,0 c 729.01,0 1320,590.98 1320,1320 0,729.03 -590.99,1320 -1320,1320 C 590.984,2640 0,2049.03 0,1320 0,590.98 590.984,0 1320,0" /><path
         id="path16"
         style="fill:#ffffff;fill-opacity:1;fill-rule:nonzero;stroke:none"
         d="m 566.176,1660.48 c 0,93.89 76.113,170 170,170 93.89,0 170,-76.11 170,-170 0,-93.89 -76.11,-170 -170,-170 -93.887,0 -170,76.11 -170,170" /><path
         id="path18"
         style="fill:#ffffff;fill-opacity:1;fill-rule:nonzero;stroke:none"
         d="m 1299.29,489.48 c -56.89,0 -109.35,30.68 -137.26,80.25 l -345.495,612.99 c -42.664,75.8 -15.805,171.84 60,214.5 75.797,42.67 171.835,15.8 214.505,-60 l 208.19,-369.029 439.78,781.969 c 42.65,75.81 138.67,102.71 214.48,60.08 75.83,-42.65 102.72,-138.67 60.08,-214.49 L 1436.56,569.781 c -27.89,-49.59 -80.35,-80.293 -137.25,-80.301 h -0.02" /></g></g></svg>
